<svg version="1.2" xmlns="http://www.w3.org/2000/svg" viewBox="0 0 1728 323" width="1728" height="323">
	<title>logo type 1 (svg)-01</title>
	<style>
		.s0 { fill: #8bc53f } 
		.s1 { fill: #9acad2 } 
	</style>
	<g>
		<g>
			<path class="s0" d="m243.8 14.4v44.2l-4.4 4.4-4.6 4.6-0.1 0.2-17.5 17.4-4.7 4.7-9.1 9.1-8.3 8.4-8.4-8.4-5.6-5.6-25.8-25.8-4.6-4.6-0.9-0.9v-44.3l1.5 1.5 43.7 43.8 0.1-0.1 44.4-44.4 0.7-0.7 3.6-3.5z"/>
			<path class="s0" d="m292.8 130.4h73.1v108.8c-3.3 5.9-7.4 11.2-12 16l-0.7 0.7q-2.5 2.3-5.1 4.5-1.3 1.1-2.5 2.2-5.4 4.6-11.1 8.8-5.6 4.3-11.5 8.2-9.6 6.4-19.8 11.8-4.3 2.2-8.6 4.3-11.1 5.3-22.8 9.4-4.5 1.6-9.1 3-10.9 3.4-22.3 5.7-6.9 1.4-14 2.4-8.6 1.2-17.4 1.8v-94.3q2-0.2 3.9-0.5 0.3 0 0.5-0.1 0.7-0.1 1.3-0.2 2.2-0.3 4.4-0.7 0.8-0.2 1.7-0.3 0 0 0.1 0 0.6-0.2 1.2-0.3 0 0 0 0 1-0.2 2-0.4 0.5-0.1 1-0.2 0.1 0 0.2-0.1 0.8-0.1 1.6-0.4 0.7-0.1 1.4-0.3 1.3-0.3 2.6-0.7 1-0.3 2.1-0.6 2-0.6 4-1.2 0.7-0.2 1.5-0.5 0.3-0.1 0.7-0.2 0.6-0.2 1.2-0.4 0.1-0.1 0.2-0.1 0.6-0.3 1.3-0.5 0.4-0.1 0.8-0.3 0.6-0.2 1.2-0.4 0-0.1 0.1-0.1 0.8-0.3 1.6-0.6 0.9-0.4 1.8-0.7 0.8-0.4 1.6-0.7 0.1 0 0.2-0.1 0.8-0.3 1.6-0.7 0.8-0.4 1.7-0.8 0.7-0.3 1.3-0.6 0.4-0.2 0.8-0.4 0.9-0.4 1.9-0.9 1.1-0.5 2.1-1.1 0.1 0 0.2-0.1 1.1-0.5 2.2-1.1 2.4-1.3 4.7-2.7c11.2 6.8 24.1 10.9 38 11.3q-0.2 0.3-0.5 0.5-0.2 0.2-0.5 0.4-0.4 0.3-0.8 0.6-0.7 0.6-1.3 1.1-0.4 0.3-0.8 0.6-0.2 0.2-0.4 0.4-0.1 0-0.2 0.1-0.6 0.5-1.2 0.9-1.7 1.3-3.3 2.5-0.7 0.5-1.3 0.9-0.1 0.1-0.2 0.2-0.3 0.2-0.6 0.4 0 0-0.1 0.1-0.9 0.6-1.7 1.2-0.7 0.4-1.4 0.9-0.6 0.4-1.1 0.7-0.1 0.1-0.3 0.2-0.7 0.5-1.5 1-0.7 0.4-1.3 0.8-0.6 0.4-1.3 0.8-0.5 0.3-1 0.6-1.1 0.7-2.3 1.4-0.6 0.4-1.3 0.8-0.9 0.5-1.9 1-0.3 0.2-0.7 0.4-0.9 0.5-1.8 1-0.2 0.1-0.4 0.2-1.1 0.6-2.2 1.2-0.1 0.1-0.3 0.2-2.5 1.2-5 2.4-0.8 0.4-1.6 0.8-0.9 0.3-1.8 0.7-1.6 0.8-3.3 1.5-0.8 0.3-1.7 0.7-0.9 0.4-1.9 0.8-1.5 0.5-3 1.1-1.5 0.5-3 1.1-1 0.3-2 0.7-1.1 0.3-2.2 0.7-1 0.3-2.1 0.7-0.2 0-0.4 0.1-0.9 0.3-1.9 0.6-0.3 0.1-0.7 0.1-0.2 0.1-0.5 0.2-0.2 0.1-0.5 0.1v32.3q0.2 0 0.3-0.1 0.8-0.2 1.6-0.4 2-0.5 4-1 0.7-0.2 1.5-0.4 0.7-0.2 1.4-0.4 0.9-0.3 1.9-0.5 3.4-1 6.8-2.2 0.7-0.2 1.4-0.5 0.6-0.2 1.3-0.4 0.7-0.3 1.5-0.5 1.5-0.6 3-1.1 0.6-0.3 1.3-0.5 0.6-0.3 1.3-0.5 0.1-0.1 0.2-0.1 0.4-0.2 0.9-0.4 0.3-0.1 0.6-0.2 0.7-0.3 1.5-0.6 3.3-1.4 6.6-2.9 0.9-0.4 1.9-0.9 0.1 0 0.1 0 1.1-0.5 2.2-1.1 1.4-0.6 2.7-1.3 0.9-0.4 1.8-0.9 1-0.5 2-1.1 0.1 0 0.2 0 0.8-0.5 1.6-0.9 1.1-0.6 2.2-1.2 0.7-0.4 1.4-0.8 0.7-0.4 1.4-0.8 0.9-0.5 1.8-1 1.1-0.7 2.3-1.4 1-0.6 2-1.3 1.8-1.1 3.5-2.2 0.5-0.3 1.1-0.7 0.9-0.6 1.7-1.2 1-0.6 1.9-1.3 0.3-0.2 0.5-0.3 0.8-0.6 1.6-1.1 1-0.7 1.9-1.4 0.1-0.1 0.1-0.1 0.9-0.6 1.8-1.3 3-2.2 5.9-4.6 1-0.8 1.9-1.5 0.1-0.1 0.2-0.2 0.8-0.7 1.7-1.4 0.4-0.4 0.8-0.7 0.1-0.1 0.2-0.1 0.3-0.3 0.6-0.6 4.1-3.5 8.1-7.3v-68.6h-62.8-1.4c-3.5 3.5-7.3 6.8-11.2 9.7q-2.1 1.6-4.2 3-6.3 4.3-13.2 7.7-0.7 0.3-1.4 0.6-4.9 2.4-10.1 4.2-0.3 0.1-0.5 0.2-0.6 0.2-1.2 0.4-0.8 0.3-1.7 0.6-0.3 0.1-0.5 0.2-0.6 0.1-1.3 0.3-0.6 0.2-1.3 0.4-0.5 0.2-1 0.3-0.8 0.2-1.6 0.4-0.6 0.2-1.3 0.4-0.2 0-0.4 0.1-0.6 0.1-1.3 0.3-0.4 0.1-0.9 0.2-0.6 0.1-1.2 0.3-0.8 0.1-1.6 0.3-0.2 0-0.4 0.1 0 0-0.1 0-0.6 0.1-1.3 0.2 0 0 0 0-0.7 0.1-1.3 0.2-0.4 0.1-0.9 0.2-0.7 0.1-1.4 0.2-2.5 0.3-5 0.6-2.3 0.2-4.5 0.3h-9q-2.2-0.1-4.5-0.3-2.5-0.3-5-0.6-0.7-0.1-1.4-0.2-0.5-0.1-0.9-0.2-0.6-0.1-1.3-0.2 0 0 0 0-0.7-0.1-1.3-0.2 0 0-0.1 0-0.2-0.1-0.4-0.1-0.8-0.2-1.6-0.3-0.6-0.2-1.2-0.3-0.5-0.1-0.9-0.2-0.7-0.2-1.3-0.3-0.2-0.1-0.4-0.1-0.7-0.2-1.3-0.4-0.8-0.2-1.6-0.4-0.5-0.1-1-0.3-0.7-0.2-1.3-0.4-0.7-0.1-1.3-0.3-0.2-0.1-0.5-0.2-0.9-0.3-1.7-0.6-0.6-0.2-1.2-0.4-0.2-0.1-0.5-0.2-5.2-1.8-10.1-4.2-0.7-0.3-1.4-0.6-6.9-3.4-13.2-7.7-2.1-1.4-4.2-3-5.9-4.4-11.2-9.7h-1.4-62.8v68.6q4 3.8 8.1 7.3 0.3 0.3 0.6 0.6 0.1 0 0.2 0.1 0.4 0.3 0.8 0.7 0.9 0.7 1.7 1.4 0.1 0.1 0.2 0.2 0.9 0.7 1.9 1.5 2.9 2.4 5.9 4.6 0.9 0.7 1.8 1.3 0 0 0.1 0.1 1 0.7 1.9 1.4 0.8 0.6 1.6 1.1 0.2 0.2 0.5 0.3 0.9 0.7 1.9 1.3 0.8 0.6 1.7 1.2 0.6 0.3 1.1 0.7 1.7 1.1 3.5 2.2 1 0.7 2 1.3 1.2 0.7 2.3 1.4 0.9 0.5 1.8 1 0.7 0.4 1.4 0.8 0.7 0.4 1.4 0.8 1.1 0.6 2.2 1.2 0.8 0.4 1.6 0.9 0.1 0 0.2 0 1 0.6 2 1.1 0.9 0.5 1.8 0.9 1.3 0.7 2.7 1.3 1.1 0.5 2.2 1.1 0.1 0 0.1 0 1 0.5 1.9 0.9 3.3 1.5 6.6 2.9 0.8 0.3 1.5 0.6 0.3 0.1 0.6 0.2 0.5 0.2 0.9 0.4 0.1 0 0.2 0.1 0.7 0.2 1.3 0.5 0.7 0.2 1.3 0.5 1.5 0.5 3 1.1 0.8 0.2 1.5 0.5 0.7 0.2 1.3 0.4 0.7 0.3 1.4 0.5 3.4 1.2 6.8 2.2 1 0.2 1.9 0.5 0.7 0.2 1.4 0.4 0.8 0.2 1.5 0.4 2 0.5 4 1 0.8 0.2 1.6 0.4 0.1 0.1 0.3 0.1v-32.3q-0.3 0-0.5-0.1-0.3-0.1-0.5-0.2-0.4 0-0.7-0.1-1-0.3-1.9-0.6-0.2-0.1-0.4-0.1-1.1-0.4-2.1-0.7-1.1-0.4-2.2-0.7-1-0.4-2-0.7-1.5-0.6-3-1.1-1.5-0.6-3-1.1-1-0.4-1.9-0.8-0.9-0.4-1.7-0.7-1.7-0.7-3.3-1.5-0.9-0.4-1.8-0.7-0.8-0.4-1.6-0.8-2.5-1.2-5-2.4-0.1-0.1-0.3-0.2-1.1-0.6-2.2-1.2-0.2-0.1-0.4-0.2-0.9-0.5-1.8-1-0.4-0.2-0.7-0.4-1-0.5-1.9-1-0.7-0.4-1.3-0.8-1.2-0.7-2.3-1.4-0.5-0.3-1-0.6-0.6-0.4-1.3-0.8-0.6-0.4-1.3-0.8-0.8-0.5-1.5-1-0.1-0.1-0.3-0.2-0.5-0.3-1.1-0.7-0.7-0.5-1.4-0.9-0.8-0.6-1.7-1.2-0.1-0.1-0.1-0.1-0.3-0.2-0.6-0.4-0.1-0.1-0.2-0.2-0.6-0.4-1.3-0.9-1.7-1.2-3.3-2.5-0.6-0.4-1.2-0.9-0.1-0.1-0.2-0.1-0.2-0.2-0.4-0.4-0.4-0.3-0.8-0.6-0.7-0.5-1.3-1.1-0.4-0.3-0.8-0.6-0.3-0.2-0.5-0.4-0.3-0.2-0.5-0.5c13.9-0.4 26.8-4.5 38-11.3q2.3 1.4 4.7 2.7 1.1 0.6 2.2 1.1 0.1 0.1 0.2 0.1 1 0.6 2.1 1.1 1 0.5 1.9 0.9 0.4 0.2 0.8 0.4 0.6 0.3 1.3 0.6 0.8 0.4 1.7 0.8 0.8 0.4 1.6 0.7 0.1 0.1 0.2 0.1 0.8 0.3 1.6 0.7 0.9 0.3 1.8 0.7 0.8 0.3 1.6 0.6 0.1 0 0.1 0.1 0.6 0.2 1.2 0.4 0.4 0.2 0.8 0.3 0.6 0.2 1.3 0.5 0.1 0 0.2 0.1 0.6 0.2 1.2 0.4 0.4 0.1 0.7 0.2 0.8 0.3 1.5 0.5 2 0.6 4 1.2 1.1 0.3 2.1 0.6 1.3 0.4 2.6 0.7 0.7 0.2 1.4 0.3 0.8 0.2 1.6 0.4 0.1 0 0.2 0.1 0.5 0.1 1 0.2 1 0.2 2 0.4 0 0 0 0 0.6 0.2 1.2 0.3 0.1 0 0.1 0 0.9 0.1 1.7 0.3 2.2 0.4 4.4 0.7 0.6 0.1 1.3 0.2 0.2 0.1 0.5 0.1 1.9 0.3 3.9 0.5v94.3q-8.8-0.6-17.4-1.8-7.1-1-14-2.4-11.4-2.3-22.3-5.7-4.6-1.4-9.1-3-11.7-4.1-22.8-9.4-4.3-2.1-8.6-4.3-10.2-5.4-19.8-11.8-5.9-3.9-11.5-8.2-5.7-4.2-11.1-8.8-1.2-1.1-2.5-2.2-2.6-2.2-5.1-4.5l-0.7-0.7c-4.6-4.8-8.7-10.2-12-16v-108.8h73.1q0 0 0-0.1-0.1-0.2-0.2-0.4-0.3-0.6-0.6-1.3-0.5-1-0.9-2-0.1-0.4-0.3-0.8-0.3-0.8-0.7-1.6 0 0 0 0-0.3-1-0.7-1.9 0-0.1-0.1-0.2 0 0 0-0.1 0 0 0 0-0.3-0.8-0.6-1.6c-2.3-6.5-4.1-13.3-5.1-20.4q-0.1-0.5-0.2-1 0-0.2 0-0.3l-0.2-1.2q-0.1-0.5-0.1-0.8-0.1-0.6-0.1-1.2-0.4-3-0.5-6v-53.2h-87.1l17.7-17.7 6.6-6.6 7-7h87.1v77.3q0 0.5 0 1 0 0.5 0 1 0 1 0.1 2c0.6 16.5 6.3 31.7 15.6 44q0 0.1 0.1 0.1c5.4 7.2 12 13.4 19.5 18.4q2.2 1.4 4.4 2.7 1.3 0.7 2.6 1.4 4.2 2.2 8.6 3.9 5.8 2.1 11.9 3.4 2.4 0.4 4.7 0.8 0.2 0 0.3 0 4.4 0.6 9 0.7 4.5-0.1 8.9-0.7 0.2 0 0.3 0 2.4-0.4 4.8-0.8 6.1-1.3 11.8-3.4 4.5-1.7 8.6-3.9 1.3-0.7 2.6-1.4 2.3-1.3 4.4-2.7c7.6-5 14.2-11.2 19.6-18.4q0 0 0-0.1c9.3-12.3 15-27.5 15.7-44q0-1 0-2 0-0.5 0-1 0-0.5 0-1v-77.3h87.2l13.6 13.6 17.7 17.7h-87.1v53.2q-0.1 3-0.5 6 0 0.6-0.1 1.2-0.1 0.4-0.1 0.8-0.1 0.6-0.2 1.2 0 0.1 0 0.3-0.1 0.5-0.2 1c-1 7.1-2.8 13.9-5.1 20.4q-0.3 0.8-0.6 1.6 0 0 0 0 0 0.1 0 0.1-0.1 0.1-0.1 0.2-0.4 1-0.8 1.9 0 0 0 0-0.3 0.8-0.6 1.6-0.2 0.4-0.3 0.8-0.5 1-0.9 2-0.3 0.7-0.7 1.3 0 0.2-0.1 0.4 0 0 0 0.1z"/>
		</g>
		<g>
			<path fill-rule="evenodd" class="s1" d="m548 234.9v-13.6q-7.9 7.1-16.8 11.9-8.9 4.8-20.2 4.8-11.4 0-21.4-4.3-10-4.3-17.4-13.5-7.5-9.2-11.7-23.7-4.1-14.4-4.1-34.7 0-18.1 4.6-31.6 4.6-13.6 12.3-22.5 7.7-8.9 17.8-13.2 10.1-4.3 21.2-4.3c7.4 0 14 1.6 20.3 4.9q9.4 4.9 15.4 11.5v-54.2l27.8-14.4v196.9h-27.8zm0.3-100.2q-2.5-3.3-6-6.5-3.5-3.2-7.8-5.9-4.3-2.7-9.3-4.4-5.1-1.8-10.2-1.8-15.1 0-23 11.2-7.8 11.1-7.8 33.7 0 26.9 8.2 39 8.3 12.1 23.7 12.1 10 0 18.4-5.5 8.4-5.5 13.8-12.5v-59.5z"/>
			<path class="s1" d="m701.8 234.9v-13.6q-5.4 8-15 12.3-9.6 4.4-20.7 4.4-24.9 0-37.7-16-12.8-15.9-12.8-47.5v-81.4h27.8v80.1q0 21.6 7.7 30.2 7.7 8.7 21.5 8.7c9.2 0 16.6-3.2 21.6-9.5q7.6-9.4 7.6-26.7v-82.8h27.8v141.7h-27.8z"/>
			<path class="s1" d="m935.6 235v-80.1q0-21.5-6.8-30.2-6.7-8.6-20.5-8.6c-9.2 0-16.3 3.1-20.7 9.4q-6.6 9.5-6.6 26.7v82.8h-27.9v-80.1q0-21.5-6.7-30.2-6.8-8.6-20.6-8.6c-9.2 0-16.2 3.1-20.6 9.4q-6.7 9.5-6.7 26.8v82.7h-27.8v-141.7h27.8v13.5q5.4-7.9 14.1-12.3 8.6-4.3 19.7-4.3 14.6 0 23.9 5.3 9.4 5.3 15 15.7 3.8-4.9 8-8.7 4.2-3.9 9.3-6.6 5.2-2.7 11.5-4.2 6.4-1.5 14.8-1.5 24.8 0 36.7 15.9 11.9 16 11.9 47.6v81.3h-27.8z"/>
			<path fill-rule="evenodd" class="s1" d="m1122.6 166.4q0 18.3-4.6 31.7-4.5 13.4-12.2 22.3-7.7 8.9-17.8 13.3-10.1 4.3-21.2 4.3c-7.3 0-13.9-1.7-20.2-4.9q-9.4-5-15.3-11.5v13.2h-27.9v-182.5l27.9-14.3-0.3 68.8q7.8-7.1 16.8-11.9 8.9-4.8 20.2-4.8 11.4 0 21.4 4.4 10 4.3 17.4 13.5 7.5 9.2 11.6 23.6 4.2 14.5 4.2 34.8zm-27.8 0.8q0-26.9-8.2-39-8.2-12.1-23.6-12.1-9.9 0-18.3 5.5-8.3 5.5-13.7 12.5v59.4q2.4 3.2 5.9 6.4 3.5 3.3 7.8 5.9 4.3 2.7 9.2 4.5 4.8 1.7 10.2 1.7 15.1 0 22.9-11.1 7.8-11.2 7.8-33.8z"/>
			<path class="s1" d="m1254.8 196.1q0 11.9-4.5 19.9-4.5 7.9-11.9 12.8-7.3 4.9-17 7-9.6 2.2-20.1 2.2-14.6 0-29.1-5.1-14.4-5.2-25.2-13l12.7-21.1q10 7 20.7 10.5 10.6 3.6 20.6 3.6 26 0 26-15.7 0-8.1-8.8-13-8.8-4.8-24.2-10.8-11.4-4.3-19.3-8.8-8-4.4-13-9.6-5-5.1-7.2-11.5-2.1-6.3-2.1-14.7 0-9.5 3.5-16.8 3.4-7.2 9.9-12.1 6.4-4.9 15.3-7.3 8.8-2.5 19.4-2.5 13.5 0 26.1 4.4 12.5 4.3 22 11.3l-12.2 21.4q-8.6-6.2-17.5-9.2-9-3-19.2-3-10.3 0-14.9 3.6-4.6 3.7-4.6 9.4 0 2.7 1.1 5 1.1 2.3 4.1 4.7 3 2.4 8 5 5 2.6 13.2 5.8 12 4.6 21 8.8 9 4.2 15.1 9.5 6.1 5.2 9.1 12.3 3 7 3 17z"/>
			<path class="s1" d="m1355.4 231.5q-5.2 3-12.1 4.7-6.8 1.8-15.2 1.8-14.9 0-23.4-9.2-8.5-9.2-8.5-28.4v-81.9h-20.3v-25.4h20.3v-40.5l27.3-14.6v55.1h35.1v25.4h-35.1v77.1q0 10 3.4 13.5 3.3 3.5 11.2 3.5 5.4 0 11.1-1.8 5.6-1.7 9.4-3.9l-3.2 24.6z"/>
			<path class="s1" d="m1440.5 285h-29.5l20.6-52.7-52.2-139.2h30.6l23.2 69.5q1.6 4.6 3.5 10.5 1.9 6 3.7 11.9 1.7 6 3.2 11 1.5 5 2 7.9 0.9-3.2 2.3-8.2 1.5-5 3.3-10.7 1.7-5.7 3.6-11.5 1.9-5.8 3.5-10.4l24.1-70h29.5l-71.4 191.9z"/>
			<path class="s1" d="m1542.7 235v-182.4l27.8-14.6v197z"/>
			<path fill-rule="evenodd" class="s1" d="m1727.8 161.2q0 3.8-0.2 7.2-0.3 3.4-0.6 5.5h-93.8q1.1 10.3 4.3 17.6 3.3 7.3 8.1 12 4.9 4.8 10.9 7.1 5.9 2.3 12.4 2.3 8.9 0 16.4-3 7.4-3 14.4-8.4l16.5 17.8q-9.5 9-21.1 13.8-11.6 4.9-27.8 4.9-12.5 0-23.7-4.9-11.2-4.8-19.6-14.3-8.4-9.4-13.2-23.2-4.9-13.8-4.9-31.4c0-11.7 1.5-22.7 4.6-31.9q4.6-13.8 12.7-23.1 8.1-9.3 19.6-14.2 11.5-4.9 25.3-4.9 15.1 0 26.3 5.7 11.3 5.7 18.7 15.4 7.4 9.8 11.1 22.7 3.6 13 3.6 27.3zm-27.8-10.2q-0.6-7.3-2.6-13.8-2-6.5-6.1-11.4-4-4.8-10.1-7.7-6.1-2.8-14.7-2.8-14.1 0-22.3 9.3-8.3 9.3-10.2 26.4z"/>
		</g>
	</g>
</svg>