<?xml version="1.0" encoding="UTF-8"?>
<svg id="Layer_1" data-name="Layer 1" xmlns="http://www.w3.org/2000/svg" viewBox="0 0 1728 432">
  <defs>
    <style>
      .cls-1 {
        fill: #9acad2;
      }

      .cls-2 {
        fill: #8bc53f;
      }
    </style>
  </defs>
  <g>
    <polygon class="cls-2" points="347.29 93.39 347.29 130.28 343.68 133.9 339.8 137.77 339.7 137.88 325.19 152.39 321.21 156.36 313.66 163.92 306.7 170.88 299.74 163.92 295.06 159.24 273.59 137.77 269.72 133.9 268.99 133.17 268.99 96.29 270.24 97.54 306.69 133.99 306.74 133.94 343.72 96.96 344.32 96.36 347.29 93.39"/>
    <path class="cls-2" d="M388.13,190.06h60.94v90.69c-2.77,4.87-6.14,9.34-10.02,13.32l-.61,.57c-1.38,1.28-2.78,2.54-4.19,3.77-.71,.62-1.42,1.24-2.14,1.84-2.98,2.54-6.05,4.99-9.18,7.35-3.14,2.37-6.36,4.64-9.65,6.82-5.32,3.52-10.83,6.79-16.5,9.79-2.34,1.24-4.71,2.43-7.11,3.58-6.17,2.95-12.53,5.59-19.04,7.89-2.5,.89-5.02,1.72-7.56,2.5-6.07,1.88-12.27,3.46-18.58,4.74-3.84,.78-7.72,1.45-11.65,2-4.78,.67-9.62,1.17-14.5,1.49v-78.61c1.09-.12,2.18-.25,3.26-.4,.13-.02,.25-.04,.38-.05,.37-.05,.75-.11,1.12-.16,1.21-.19,2.41-.39,3.61-.61,.49-.09,.97-.18,1.45-.28,.02,0,.04,0,.05,0,.33-.07,.67-.14,1-.2,0,0,0,0,.01,0,.56-.11,1.11-.23,1.67-.36,.29-.06,.59-.13,.88-.19,.05,0,.09-.02,.14-.03,.45-.1,.91-.21,1.36-.33,.38-.09,.76-.19,1.13-.28,.71-.18,1.42-.37,2.13-.56,.61-.16,1.21-.33,1.81-.51,1.11-.33,2.22-.67,3.32-1.02,.41-.13,.82-.27,1.22-.4,.2-.07,.41-.14,.62-.21,.33-.11,.66-.23,1-.34,.05-.01,.09-.03,.13-.05,.37-.14,.74-.27,1.12-.41,.22-.08,.44-.16,.66-.24,.33-.12,.65-.24,.97-.37,.04-.01,.08-.03,.11-.04,.46-.18,.92-.36,1.37-.54,.48-.19,.96-.38,1.44-.58,.46-.19,.91-.38,1.37-.57,.05-.02,.11-.05,.17-.07,.44-.19,.88-.38,1.31-.58,.47-.21,.94-.42,1.41-.64,.37-.17,.75-.34,1.12-.52,.22-.1,.43-.2,.65-.31,.52-.25,1.03-.5,1.54-.76,.61-.31,1.22-.61,1.82-.93,.04-.02,.08-.04,.12-.06,.61-.32,1.21-.64,1.81-.97,1.34-.73,2.65-1.48,3.96-2.26,9.29,5.66,20.1,9.07,31.67,9.48-.15,.13-.3,.25-.45,.37-.13,.1-.25,.21-.38,.32-.23,.19-.46,.38-.69,.56-.36,.29-.72,.58-1.08,.87-.22,.18-.44,.35-.66,.52-.12,.1-.24,.2-.37,.29-.05,.05-.11,.09-.17,.14-.33,.25-.65,.51-.98,.75-.91,.7-1.83,1.38-2.75,2.05-.36,.26-.71,.52-1.07,.77-.05,.04-.1,.08-.15,.11-.17,.12-.33,.24-.51,.36-.03,.02-.06,.05-.09,.06-.48,.33-.96,.67-1.44,1-.37,.26-.75,.51-1.12,.76-.33,.22-.65,.44-.98,.65-.05,.04-.11,.07-.17,.11-.42,.28-.85,.56-1.29,.83-.37,.24-.75,.48-1.12,.72-.33,.21-.67,.42-1.01,.63-.29,.19-.59,.37-.88,.54-.63,.38-1.26,.76-1.9,1.13-.36,.22-.73,.42-1.09,.64-.51,.29-1.03,.59-1.55,.88,0,0,0,0,0,0-.21,.11-.42,.23-.63,.34-.51,.28-1.01,.56-1.52,.83-.11,.06-.22,.12-.33,.18-.59,.32-1.17,.62-1.77,.93-.1,.05-.2,.11-.31,.16-1.36,.7-2.73,1.37-4.11,2.02-.46,.22-.92,.43-1.39,.65-.48,.22-.96,.43-1.44,.65-.92,.41-1.84,.8-2.76,1.2-.47,.2-.94,.39-1.42,.59-.54,.22-1.08,.44-1.63,.65-.82,.32-1.64,.64-2.46,.94-.83,.31-1.65,.6-2.48,.9-.56,.19-1.11,.39-1.67,.58-.61,.21-1.22,.41-1.83,.61h0c-.59,.19-1.19,.37-1.78,.56-.1,.03-.2,.06-.3,.09-.54,.16-1.08,.33-1.63,.48-.18,.05-.36,.11-.54,.16-.14,.04-.28,.08-.42,.12-.14,.05-.28,.08-.42,.12v26.88c.08-.02,.16-.04,.24-.06,.44-.1,.87-.21,1.3-.32,1.12-.27,2.23-.56,3.34-.86,.42-.11,.84-.23,1.26-.35,.4-.1,.79-.22,1.19-.33,.51-.14,1.02-.29,1.53-.44,1.91-.56,3.79-1.15,5.67-1.78,.4-.13,.8-.27,1.2-.41,.36-.12,.71-.24,1.07-.37,.42-.14,.83-.29,1.24-.44,.84-.3,1.68-.6,2.51-.92,.36-.13,.71-.27,1.07-.41,.36-.14,.72-.28,1.08-.42,.05-.02,.11-.05,.17-.07,.26-.1,.52-.2,.78-.31,.15-.06,.3-.12,.45-.18,.42-.17,.85-.34,1.27-.52,1.86-.76,3.71-1.56,5.53-2.39,.52-.24,1.04-.47,1.55-.71,.05-.03,.09-.05,.14-.07,.61-.28,1.21-.57,1.82-.87,.74-.36,1.48-.72,2.22-1.09,.49-.24,.98-.49,1.47-.74,.58-.3,1.16-.6,1.74-.9,.04-.02,.08-.05,.12-.07,.44-.23,.88-.47,1.31-.7,.64-.34,1.28-.69,1.91-1.04,.37-.21,.74-.42,1.12-.63,.38-.21,.76-.43,1.14-.65,.51-.29,1.02-.59,1.53-.89,.63-.37,1.25-.75,1.88-1.13,.58-.35,1.16-.7,1.73-1.07,.97-.61,1.94-1.22,2.89-1.85,.3-.2,.61-.39,.9-.6,.49-.33,.98-.65,1.47-.98,.53-.36,1.06-.72,1.59-1.09,.13-.09,.25-.17,.38-.26,.43-.3,.86-.61,1.29-.91,.56-.39,1.11-.79,1.66-1.19,0-.01,.02-.02,.04-.03,.49-.36,.99-.73,1.48-1.09,1.67-1.25,3.33-2.54,4.96-3.85,.53-.42,1.06-.85,1.58-1.29,.05-.04,.09-.07,.13-.1,.48-.4,.96-.8,1.44-1.21,.23-.19,.46-.38,.68-.58,.05-.04,.09-.07,.13-.11,.17-.14,.33-.28,.5-.43,2.3-1.98,4.54-4.03,6.73-6.13v-57.11h-52.3s-1.12,0-1.12,0h0c-2.94,2.9-6.09,5.6-9.4,8.08h0c-1.13,.84-2.28,1.66-3.45,2.46-3.5,2.37-7.16,4.51-10.98,6.38-.39,.2-.79,.39-1.19,.58-2.74,1.3-5.56,2.47-8.44,3.49h0c-.15,.06-.29,.11-.44,.16-.32,.11-.65,.23-.97,.33-.47,.16-.94,.32-1.42,.47-.14,.05-.29,.09-.44,.14-.34,.11-.68,.21-1.02,.32-.37,.11-.73,.22-1.09,.32-.3,.09-.59,.17-.89,.25-.43,.12-.87,.24-1.3,.35h0c-.36,.09-.71,.19-1.07,.27-.12,.03-.23,.06-.35,.09-.35,.09-.7,.17-1.06,.25-.25,.06-.5,.11-.74,.17-.35,.08-.7,.16-1.06,.23-.43,.09-.86,.18-1.29,.26-.13,.02-.26,.05-.38,.07,0,0-.01,0-.02,0-.36,.07-.72,.14-1.08,.2-.02,0-.04,0-.05,0-.36,.06-.72,.13-1.08,.19-.24,.04-.48,.08-.72,.12-.4,.06-.81,.12-1.21,.18-1.39,.2-2.78,.37-4.18,.5-1.23,.12-2.47,.21-3.71,.28h-7.5c-1.24-.07-2.48-.16-3.71-.28-1.4-.14-2.79-.3-4.18-.5-.4-.06-.81-.12-1.21-.18-.24-.04-.48-.08-.72-.12-.36-.06-.72-.12-1.08-.19-.02,0-.04,0-.05,0-.36-.06-.72-.13-1.08-.2,0,0-.01,0-.02,0-.13-.02-.26-.05-.38-.07-.43-.09-.86-.17-1.29-.26-.36-.07-.71-.15-1.06-.23-.25-.05-.5-.11-.74-.17-.36-.08-.71-.17-1.06-.25-.12-.03-.23-.05-.35-.09-.36-.09-.71-.18-1.07-.27h0c-.44-.11-.87-.23-1.3-.35-.3-.08-.59-.17-.89-.25-.37-.1-.73-.21-1.09-.32-.34-.1-.68-.21-1.02-.32-.15-.05-.29-.09-.44-.14-.48-.15-.95-.31-1.42-.47-.33-.11-.65-.22-.97-.33-.15-.05-.29-.1-.44-.15h0c-2.88-1.03-5.69-2.19-8.44-3.5-.4-.19-.79-.38-1.19-.58-3.82-1.87-7.49-4.01-10.98-6.38-1.17-.79-2.32-1.61-3.45-2.46h0c-3.31-2.48-6.45-5.18-9.4-8.08h0s-1.12,0-1.12,0h0s-52.3,0-52.3,0v57.11c2.19,2.1,4.43,4.14,6.73,6.13,.16,.14,.33,.28,.5,.43,.05,.04,.09,.07,.13,.11,.23,.2,.46,.39,.68,.58,.48,.41,.96,.8,1.44,1.21,.04,.03,.08,.07,.13,.1,.52,.43,1.05,.87,1.58,1.29,1.63,1.31,3.29,2.6,4.96,3.85,.49,.37,.98,.73,1.48,1.09,.02,0,.03,.01,.04,.03,.55,.4,1.11,.8,1.66,1.19,.43,.31,.86,.61,1.29,.91,.13,.09,.25,.18,.38,.26,.53,.37,1.06,.73,1.59,1.09,.49,.33,.98,.65,1.47,.98,.3,.2,.6,.4,.9,.6,.96,.62,1.92,1.24,2.89,1.85,.57,.36,1.15,.71,1.73,1.07,.63,.38,1.26,.75,1.88,1.13,.51,.3,1.02,.6,1.53,.89,.38,.22,.76,.44,1.14,.65,.37,.21,.74,.42,1.12,.63,.63,.35,1.27,.7,1.91,1.04,.43,.24,.88,.47,1.31,.7,.04,.02,.08,.05,.12,.07,.58,.3,1.16,.6,1.74,.9,.49,.25,.98,.5,1.47,.74,.74,.37,1.47,.73,2.22,1.09,.6,.29,1.21,.58,1.82,.87,.05,.02,.1,.04,.14,.07,.51,.24,1.03,.47,1.55,.71,1.82,.83,3.67,1.63,5.53,2.39,.42,.18,.85,.35,1.27,.52,.15,.06,.3,.12,.45,.18,.26,.1,.52,.21,.78,.31,.05,.02,.11,.05,.17,.07,.36,.14,.72,.28,1.08,.42,.36,.14,.71,.28,1.07,.41,.84,.32,1.67,.62,2.51,.92,.41,.15,.82,.3,1.24,.44,.36,.13,.71,.25,1.07,.37,.4,.14,.8,.28,1.2,.41,1.87,.63,3.76,1.22,5.67,1.78,.51,.15,1.02,.3,1.53,.44,.39,.11,.79,.23,1.19,.33,.42,.12,.84,.23,1.26,.35,1.11,.3,2.22,.59,3.34,.86,.43,.11,.87,.22,1.3,.32,.08,.02,.16,.04,.24,.06v-26.88c-.14-.04-.28-.08-.42-.12-.14-.04-.28-.08-.42-.12-.18-.05-.36-.1-.54-.16-.55-.16-1.09-.32-1.63-.48-.1-.03-.2-.06-.3-.09-.59-.19-1.19-.37-1.78-.56h0c-.61-.2-1.22-.4-1.83-.61-.56-.19-1.11-.38-1.67-.58-.83-.29-1.66-.59-2.48-.9-.82-.31-1.64-.62-2.46-.94-.55-.22-1.09-.43-1.63-.65-.47-.19-.94-.39-1.42-.59-.93-.39-1.85-.79-2.76-1.2-.48-.22-.96-.44-1.44-.65-.46-.21-.93-.43-1.39-.65-1.38-.65-2.75-1.33-4.11-2.02-.1-.05-.2-.11-.31-.16-.59-.3-1.18-.61-1.77-.93-.11-.06-.22-.12-.33-.18-.51-.27-1.02-.55-1.52-.83-.21-.11-.42-.23-.63-.34,0,0,0,0,0,0-.52-.29-1.03-.59-1.55-.88-.37-.21-.73-.42-1.09-.64-.64-.37-1.27-.75-1.9-1.13-.29-.18-.59-.36-.88-.54-.34-.21-.67-.42-1.01-.63-.37-.23-.75-.47-1.12-.72-.43-.27-.86-.55-1.29-.83-.06-.04-.11-.07-.17-.11-.33-.22-.65-.43-.98-.65-.37-.25-.75-.51-1.12-.76-.48-.33-.96-.66-1.44-1-.03-.02-.06-.04-.09-.06-.17-.12-.34-.23-.51-.36-.05-.03-.1-.07-.15-.11-.36-.25-.71-.51-1.07-.77-.93-.67-1.84-1.35-2.75-2.05-.33-.25-.65-.5-.98-.75-.06-.05-.12-.09-.17-.14-.13-.09-.25-.19-.37-.29-.22-.17-.44-.34-.66-.52-.37-.29-.72-.58-1.08-.87-.23-.19-.46-.37-.69-.56-.13-.11-.25-.21-.38-.32-.15-.13-.3-.25-.45-.37,11.57-.4,22.38-3.81,31.67-9.48,1.3,.78,2.62,1.53,3.96,2.26,.6,.33,1.21,.65,1.81,.97,.04,.02,.08,.05,.12,.06,.61,.32,1.21,.62,1.82,.93,.51,.26,1.02,.51,1.54,.76,.22,.1,.43,.21,.65,.31,.37,.18,.74,.35,1.12,.52,.47,.22,.93,.43,1.41,.64,.43,.2,.87,.39,1.31,.58,.05,.02,.11,.05,.17,.07,.46,.19,.91,.38,1.37,.57,.47,.2,.95,.4,1.44,.58,.46,.19,.91,.37,1.37,.54,.04,.01,.08,.03,.11,.04,.32,.13,.64,.25,.97,.37,.22,.09,.44,.17,.66,.24,.37,.14,.74,.27,1.12,.41,.05,.02,.09,.04,.13,.05,.33,.12,.66,.23,1,.34,.21,.07,.42,.14,.62,.21,.41,.14,.82,.27,1.22,.4,1.1,.36,2.21,.7,3.32,1.02,.6,.18,1.2,.35,1.81,.51,.7,.19,1.42,.38,2.13,.56,.37,.09,.75,.19,1.13,.28,.45,.11,.91,.22,1.36,.33,.05,0,.09,.02,.14,.03,.29,.07,.59,.14,.88,.19,.56,.13,1.11,.25,1.67,.36,0,0,0,0,.01,0,.33,.07,.66,.14,1,.2,.02,0,.04,0,.05,0,.48,.1,.97,.19,1.45,.28,1.2,.22,2.4,.42,3.61,.61,.37,.05,.75,.11,1.12,.16,.13,.02,.25,.04,.38,.05,1.08,.15,2.17,.28,3.26,.4v78.61c-4.88-.32-9.72-.82-14.5-1.49-3.92-.56-7.81-1.22-11.65-2-6.31-1.28-12.51-2.86-18.58-4.74-2.54-.78-5.06-1.61-7.56-2.5-6.51-2.3-12.87-4.93-19.04-7.89-2.4-1.14-4.77-2.34-7.11-3.58-5.67-3-11.17-6.27-16.5-9.79-3.29-2.18-6.51-4.45-9.65-6.82-3.14-2.36-6.2-4.8-9.18-7.35-.72-.61-1.43-1.22-2.14-1.84-1.42-1.23-2.82-2.49-4.19-3.77l-.61-.57c-3.88-3.98-7.25-8.46-10.02-13.32v-90.69h60.94s-.01-.03-.02-.05c-.05-.11-.09-.21-.14-.32-.18-.37-.35-.75-.52-1.13-.26-.55-.5-1.11-.74-1.66-.09-.2-.18-.41-.26-.61-.19-.45-.37-.91-.56-1.36,0,0,0,0,0-.01-.21-.53-.42-1.07-.62-1.6-.02-.05-.04-.09-.06-.14,0-.02-.01-.04-.02-.06,0,0,0-.01,0-.02-.16-.43-.33-.87-.48-1.31-1.95-5.45-3.41-11.14-4.3-17.02-.05-.28-.09-.56-.13-.85-.01-.1-.03-.19-.04-.29l-.14-1c-.03-.23-.05-.45-.08-.67-.04-.32-.08-.64-.11-.97-.19-1.65-.32-3.31-.42-4.99v-44.37h-72.54l14.71-14.7,5.54-5.54,5.79-5.79h72.65v64.37c0,.28,0,.56,0,.84s0,.56,0,.84c0,.57,.02,1.15,.05,1.72,.53,13.72,5.29,26.36,13.02,36.65,0,.02,.02,.03,.04,.05,4.51,6,10.03,11.2,16.31,15.34,1.19,.79,2.41,1.54,3.66,2.25,.71,.41,1.43,.79,2.16,1.17,2.32,1.21,4.72,2.28,7.18,3.21,3.18,1.2,6.49,2.15,9.89,2.84,1.3,.26,2.61,.49,3.94,.67,.08,0,.16,.02,.24,.03,2.45,.33,4.93,.53,7.46,.58,2.52-.05,5.01-.25,7.46-.58,.08,0,.16-.02,.24-.03,1.33-.19,2.64-.41,3.94-.67,3.4-.69,6.7-1.64,9.89-2.84,2.46-.93,4.87-2,7.18-3.21,.73-.38,1.44-.77,2.16-1.17,1.25-.71,2.46-1.46,3.66-2.25,6.28-4.14,11.8-9.34,16.31-15.34,.01-.01,.03-.03,.04-.05,7.72-10.29,12.49-22.93,13.02-36.65,.02-.57,.04-1.14,.05-1.72,0-.28,0-.56,0-.84s0-.56,0-.84V85.59h72.65l11.34,11.34,14.71,14.7h-72.54v44.37c-.09,1.67-.23,3.34-.42,4.99-.04,.33-.07,.65-.11,.97-.03,.23-.05,.45-.08,.67-.05,.33-.09,.67-.14,1-.01,.1-.03,.19-.04,.29-.04,.28-.08,.56-.13,.85-.89,5.88-2.34,11.57-4.3,17.02-.16,.44-.32,.88-.48,1.31,0,0,0,.01,0,.02,0,.02-.01,.04-.02,.06-.02,.05-.04,.09-.06,.14-.2,.54-.41,1.07-.62,1.6,0,0,0,0,0,.01-.19,.46-.37,.91-.56,1.36-.09,.2-.18,.41-.26,.61-.23,.56-.48,1.11-.74,1.66-.17,.38-.34,.75-.52,1.13-.05,.11-.09,.21-.14,.32,0,.01-.01,.03-.02,.05Z"/>
  </g>
  <g>
    <path class="cls-1" d="M600.78,277.12v-11.26c-4.36,3.94-9.01,7.25-13.96,9.9-4.95,2.65-10.59,3.98-16.89,3.98s-12.24-1.2-17.79-3.6c-5.56-2.4-10.4-6.15-14.53-11.26-4.13-5.1-7.36-11.67-9.68-19.71-2.33-8.03-3.49-17.68-3.49-28.94,0-10.06,1.27-18.84,3.83-26.35,2.55-7.51,5.97-13.74,10.25-18.69,4.28-4.96,9.24-8.63,14.86-11.04,5.63-2.4,11.52-3.6,17.68-3.6s11.63,1.37,16.89,4.1c5.25,2.73,9.53,5.92,12.84,9.56v-45.16l23.2-11.97v164.05h-23.2Zm.23-83.5c-1.35-1.79-3.01-3.58-4.96-5.37-1.95-1.79-4.13-3.43-6.53-4.93-2.4-1.49-4.99-2.72-7.77-3.7-2.78-.97-5.6-1.46-8.45-1.46-8.41,0-14.79,3.1-19.14,9.29-4.36,6.2-6.53,15.57-6.53,28.11,0,14.93,2.29,25.76,6.87,32.48,4.58,6.72,11.15,10.08,19.71,10.08,5.55,0,10.66-1.53,15.32-4.59,4.65-3.06,8.48-6.53,11.49-10.42v-49.5Z"/>
    <path class="cls-1" d="M728.94,277.12v-11.26c-3.01,4.4-7.17,7.81-12.5,10.24-5.33,2.43-11.08,3.64-17.23,3.64-13.82,0-24.29-4.43-31.42-13.29-7.13-8.86-10.7-22.07-10.7-39.64v-67.79h23.2v66.74c0,11.99,2.14,20.38,6.42,25.17,4.28,4.79,10.25,7.19,17.91,7.19s13.81-2.62,18.02-7.87c4.2-5.24,6.31-12.66,6.31-22.25v-68.99h23.2v118.1h-23.2Z"/>
    <path class="cls-1" d="M923.76,277.26v-66.74c0-11.98-1.88-20.37-5.63-25.17-3.76-4.79-9.46-7.19-17.12-7.19s-13.55,2.62-17.23,7.87c-3.68,5.24-5.52,12.66-5.52,22.25v68.99h-23.2v-66.74c0-11.98-1.88-20.37-5.63-25.17-3.75-4.79-9.46-7.19-17.12-7.19s-13.55,2.62-17.23,7.87c-3.68,5.24-5.52,12.66-5.52,22.25v68.99h-23.2v-118.1h23.2v11.26c3-4.4,6.91-7.81,11.71-10.24,4.8-2.43,10.28-3.64,16.44-3.64,8.11,0,14.75,1.48,19.93,4.44,5.18,2.96,9.35,7.32,12.5,13.09,2.1-2.73,4.31-5.16,6.64-7.28,2.33-2.13,4.92-3.95,7.77-5.47,2.85-1.52,6.04-2.69,9.57-3.53,3.53-.83,7.62-1.25,12.28-1.25,13.81,0,24.02,4.43,30.63,13.29,6.61,8.86,9.91,22.07,9.91,39.64v67.79h-23.2Z"/>
    <path class="cls-1" d="M1079.62,220.05c0,10.21-1.27,19.03-3.82,26.46-2.55,7.43-5.96,13.63-10.22,18.58-4.27,4.95-9.21,8.64-14.82,11.04-5.62,2.4-11.49,3.6-17.63,3.6s-11.6-1.37-16.84-4.1c-5.24-2.73-9.51-5.92-12.8-9.56v11.04h-23.2V125l23.2-11.93-.22,57.35c4.35-3.94,9.01-7.24,13.96-9.9,4.95-2.65,10.59-3.98,16.89-3.98s12.24,1.2,17.79,3.6c5.55,2.4,10.4,6.16,14.53,11.26,4.13,5.11,7.36,11.68,9.68,19.71,2.33,8.03,3.49,17.68,3.49,28.94Zm-23.2,.66c0-14.93-2.28-25.75-6.84-32.48-4.56-6.72-11.1-10.08-19.62-10.08-5.53,0-10.62,1.53-15.25,4.59-4.64,3.06-8.45,6.53-11.44,10.41v49.5c1.34,1.79,2.99,3.58,4.93,5.37,1.94,1.79,4.11,3.44,6.5,4.93,2.39,1.49,4.93,2.72,7.63,3.7,2.69,.97,5.53,1.45,8.52,1.45,8.37,0,14.73-3.1,19.06-9.29,4.34-6.19,6.5-15.57,6.5-28.11Z"/>
    <path class="cls-1" d="M1189.76,244.83c0,6.61-1.25,12.13-3.76,16.55-2.5,4.43-5.8,8-9.89,10.7-4.1,2.7-8.81,4.66-14.15,5.86s-10.94,1.8-16.79,1.8c-8.11,0-16.18-1.43-24.21-4.28-8.03-2.85-15.06-6.45-21.06-10.81l10.59-17.57c5.55,3.91,11.3,6.83,17.23,8.78,5.93,1.95,11.67,2.93,17.23,2.93,14.42,0,21.62-4.35,21.62-13.06,0-4.5-2.44-8.11-7.32-10.81-4.88-2.7-11.6-5.7-20.16-9.01-6.31-2.4-11.68-4.84-16.1-7.32-4.43-2.48-8.03-5.14-10.81-8-2.78-2.85-4.77-6.04-5.97-9.57-1.2-3.53-1.8-7.62-1.8-12.27,0-5.25,.96-9.91,2.9-13.96,1.93-4.05,4.68-7.43,8.25-10.14,3.57-2.7,7.82-4.73,12.75-6.08,4.93-1.35,10.33-2.03,16.18-2.03,7.51,0,14.75,1.2,21.73,3.6,6.98,2.4,13.1,5.56,18.36,9.46l-10.13,17.79c-4.81-3.45-9.69-6-14.64-7.66-4.96-1.65-10.29-2.48-15.99-2.48s-9.84,1.01-12.39,3.04c-2.55,2.03-3.83,4.62-3.83,7.77,0,1.5,.3,2.89,.91,4.17,.61,1.28,1.74,2.59,3.4,3.94,1.66,1.35,3.89,2.74,6.69,4.17,2.8,1.43,6.46,3.04,11,4.84,6.65,2.56,12.48,4.99,17.47,7.32,4.99,2.33,9.19,4.96,12.59,7.88,3.4,2.93,5.94,6.35,7.6,10.25,1.66,3.91,2.5,8.64,2.5,14.19Z"/>
    <path class="cls-1" d="M1273.55,274.33c-2.85,1.65-6.19,2.96-10.02,3.94-3.83,.98-8.07,1.46-12.73,1.46-8.26,0-14.75-2.55-19.48-7.66-4.73-5.1-7.1-12.99-7.1-23.65v-68.25h-16.89v-21.17h16.89v-33.78l22.75-12.16v45.95h29.28v21.17h-29.28v64.19c0,5.56,.94,9.31,2.82,11.26,1.87,1.95,4.99,2.93,9.35,2.93,3,0,6.08-.49,9.23-1.46,3.15-.97,5.78-2.06,7.88-3.27l-2.7,20.49Z"/>
    <path class="cls-1" d="M1344.49,318.93h-24.55l17.12-43.92-43.47-115.99h25.45l19.37,57.88c.9,2.55,1.88,5.48,2.93,8.78,1.05,3.3,2.06,6.61,3.04,9.91,.97,3.3,1.88,6.35,2.7,9.12,.82,2.78,1.39,4.99,1.69,6.64,.45-1.8,1.09-4.09,1.91-6.87,.82-2.78,1.72-5.74,2.7-8.9,.97-3.15,1.99-6.34,3.04-9.57,1.05-3.23,2.03-6.12,2.93-8.67l20.05-58.33h24.55l-59.46,159.91Z"/>
    <path class="cls-1" d="M1429.63,277.26V125.23l23.2-12.16v164.19h-23.2Z"/>
    <path class="cls-1" d="M1583.91,215.78c0,2.1-.08,4.09-.23,5.97-.15,1.88-.3,3.42-.45,4.62h-78.16c.6,5.71,1.8,10.59,3.6,14.64,1.8,4.05,4.05,7.4,6.76,10.02,2.7,2.63,5.7,4.58,9.01,5.86,3.3,1.28,6.76,1.91,10.36,1.91,4.96,0,9.49-.82,13.63-2.48,4.13-1.65,8.14-3.98,12.05-6.98l13.74,14.86c-5.26,4.96-11.11,8.78-17.57,11.49-6.46,2.7-14.19,4.05-23.2,4.05-6.91,0-13.48-1.35-19.71-4.05-6.23-2.7-11.68-6.68-16.33-11.94-4.66-5.25-8.33-11.71-11.04-19.37-2.7-7.66-4.05-16.36-4.05-26.13s1.27-18.92,3.83-26.58c2.55-7.66,6.08-14.08,10.59-19.26,4.5-5.18,9.95-9.12,16.33-11.82,6.38-2.7,13.4-4.05,21.06-4.05,8.41,0,15.73,1.58,21.96,4.73,6.23,3.15,11.41,7.43,15.54,12.84,4.13,5.41,7.21,11.71,9.23,18.92,2.03,7.21,3.04,14.79,3.04,22.75Zm-23.2-8.56c-.3-4.05-1.01-7.88-2.14-11.49-1.13-3.6-2.81-6.76-5.07-9.46-2.25-2.7-5.07-4.84-8.45-6.42-3.38-1.58-7.47-2.36-12.27-2.36-7.81,0-14,2.59-18.58,7.77-4.58,5.18-7.4,12.5-8.45,21.96h54.96Z"/>
  </g>
</svg>